<?xml version="1.0" encoding="UTF-8"?>
<svg id="Fastbreak.ai_Logo" xmlns="http://www.w3.org/2000/svg" xmlns:xlink="http://www.w3.org/1999/xlink" version="1.1" viewBox="0 0 1382.523 179.7">
  <!-- Generator: Adobe Illustrator 30.0.0, SVG Export Plug-In . SVG Version: 2.1.1 Build 123)  -->
  <defs>
    <style>
      .st0 {
        fill: #fff;
      }

      .st1 {
        fill: #49cbe8;
      }

      .st1, .st2, .st3, .st4, .st5 {
        fill-rule: evenodd;
      }

      .st2 {
        fill: url(#linear-gradient);
      }

      .st3 {
        fill: url(#linear-gradient1);
      }

      .st4 {
        fill: url(#linear-gradient2);
      }

      .st5 {
        fill: url(#linear-gradient3);
      }
    </style>
    <linearGradient id="linear-gradient" x1="125.667" y1="4506.436" x2="207.667" y2="4353.936" gradientTransform="translate(0 -4316.9)" gradientUnits="userSpaceOnUse">
      <stop offset="0" stop-color="#17f2e3"/>
      <stop offset="1" stop-color="#49cbe8"/>
    </linearGradient>
    <linearGradient id="linear-gradient1" x1="106.644" y1="4496.124" x2="188.644" y2="4343.724" gradientTransform="translate(0 -4316.9)" gradientUnits="userSpaceOnUse">
      <stop offset="0" stop-color="#17f2e3"/>
      <stop offset="1" stop-color="#49cbe8"/>
    </linearGradient>
    <linearGradient id="linear-gradient2" x1="43.825" y1="4462.413" x2="125.825" y2="4310.013" gradientTransform="translate(0 -4316.9)" gradientUnits="userSpaceOnUse">
      <stop offset="0" stop-color="#17f2e3"/>
      <stop offset="1" stop-color="#49cbe8"/>
    </linearGradient>
    <linearGradient id="linear-gradient3" x1="24.749" y1="4452.126" x2="106.749" y2="4299.726" gradientTransform="translate(0 -4316.9)" gradientUnits="userSpaceOnUse">
      <stop offset="0" stop-color="#17f2e3"/>
      <stop offset="1" stop-color="#49cbe8"/>
    </linearGradient>
  </defs>
  <g>
    <g>
      <polygon class="st0" points="536.2 73.1 566.2 73.1 556.2 130.1 589.1 130.1 599.1 73.1 630.2 73.1 634.2 50.1 540.2 50.1 536.2 73.1"/>
      <path class="st0" d="M716.1,89c19-6.3,26.2-38.9-6.3-38.9h-65.6l-14.1,80h68.3c33.9,0,38.9-36.1,17.6-41.1h.1ZM686,110.1h-19.5l1.9-11h19.2c9.8,0,7.7,10.5-1.6,11h0ZM691.1,81.1h-19.5l1.8-10h19.3c9.9,0,7.6,10-1.5,10h-.1Z"/>
      <polygon class="st0" points="294.2 73 345.1 73 349.1 50.1 266.3 50.1 252.3 130.1 284.1 130.1 288.5 105.1 325.5 105.1 329.6 82.1 292.6 82.1 294.2 73"/>
      <path class="st0" d="M1112.8,92.2l40.9-42.1h-35.1s-16.5,16.6-25.9,26.2-10.9,23.7-2.8,32.3c5.3,5.6,20.4,21.5,20.4,21.5h37.4s-34.9-37.9-34.9-37.9Z"/>
      <path class="st0" d="M474.3,75.2c2-8,32.8-4.9,50.5,0l4-22.6c-21.2-4.5-79.4-11.7-85.3,20-6,32.1,54.9,23.7,53.6,32.7-1,7.6-29.3,5.3-54.1-3l-4,22.8c34,9.7,83.3,11.3,88.3-19.8,4.9-30.5-55-22.5-53-30.4v.3Z"/>
      <path class="st0" d="M373.7,50.1l-48,80h31l6.4-10.6h37.6l2.6,10.6h31.1l-19.9-80h-40.8ZM375.3,99.6l14.1-22.8,6,22.8s-20.1,0-20.1,0Z"/>
      <path class="st0" d="M972.9,50.1l-48,80h31l6.4-10.6h37.6l2.6,10.6h31.1l-19.9-80h-40.8,0ZM974.5,99.6l14.1-22.8,6,22.8s-20.1,0-20.1,0Z"/>
      <path class="st0" d="M807.9,50.1h-58.6l-14.1,80h33l4.5-25.2h11.1l10.7,25.2h32.6l-13.1-29.6c27.4-11.4,30.7-50.4-6.1-50.4h0ZM796.1,81.1h-19.4l1.8-10h19.1c10.1,0,7.6,10-1.5,10h0Z"/>
      <polygon class="st0" points="1073.3 130.1 1040.3 130.1 1054.4 50.1 1087.4 50.1 1073.3 130.1"/>
    </g>
    <polygon class="st0" points="928.4 72.1 932.2 50.1 851.2 50.1 837.1 130.1 918.1 130.1 922 108.1 874 108.1 875.6 99.1 915.6 99.1 918.9 80.1 878.9 80.1 880.4 72.1 928.4 72.1"/>
  </g>
  <g>
    <path class="st0" d="M1224.8,50.1l-48,80h31l6.4-10.6h37.6l2.6,10.6h31.1l-19.9-80h-40.8,0ZM1226.4,99.6l14.1-22.8,6,22.8s-20.1,0-20.1,0Z"/>
    <polygon class="st0" points="1325.2 130.1 1292.2 130.1 1306.3 50.1 1339.3 50.1 1325.2 130.1"/>
  </g>
  <path class="st1" d="M1156.9,112.2c6.4-10.7,14.9-18.3,26.1-22.2-9.9-4-15.9-11.4-18.3-22.2-6.1,10.8-14.8,18.2-26.1,22.2,9.8,3.9,15.7,11.4,18.3,22.2Z"/>
  <g>
    <path class="st2" d="M222.4,33.1c0,1.8-.4,3.4-2.2,5.2s-52.2,51.7-52.2,51.7c0,0,20.1,19.9,21.6,21.5s2.2,3.2,2.2,5.2v28.8c0,3.6-3.4,5.3-6.5,2.2s-22.4-21.9-35.6-35.3-12.8-31.7,0-44.5S213.5,4.2,216.2,1.5c2.7-2.7,6.2-1.5,6.2,2.5v29.1h0Z"/>
    <path class="st3" d="M114.2,143.6s21.2,21.1,22.5,22.4,3.2,2.2,5.2,2.2h28.7c4,0,5.2-3.6,2.5-6.2-1.4-1.4-20.3-20.4-36.4-36.4-12.3-12.3-32.5-12.3-44.8,0-12.3,12.3-35.1,35.1-36.4,36.4-2.6,2.6-1.4,6.2,2.5,6.2h28.7c2,0,3.9-.9,5.2-2.2s22.5-22.4,22.5-22.4h-.2,0Z"/>
    <path class="st4" d="M114.2,36.3s-21.2-21.1-22.5-22.4c-1.3-1.3-3.2-2.2-5.2-2.2h-28.7c-4,0-5.2,3.6-2.5,6.2s24.1,24.1,36.4,36.4c12.3,12.3,32.4,12.4,44.8,0,12.4-12.4,35.1-35.1,36.4-36.4,2.6-2.6,1.4-6.2-2.5-6.2h-28.7c-2,0-3.9.9-5.2,2.2s-22.5,22.4-22.5,22.4c0,0,.2,0,.2,0Z"/>
    <path class="st5" d="M6,146.8c0-1.8.4-3.4,2.2-5.2,1.8-1.8,52.2-51.7,52.2-51.7,0,0-20.1-19.9-21.6-21.5s-2.2-3.2-2.2-5.2v-28.8c0-4.2,3.4-5.3,6.5-2.2s22.4,21.9,35.6,35.3,12.8,31.7,0,44.5c-12.8,12.9-63.8,63.7-66.4,66.3s-6.2,1.5-6.2-2.5v-29.1h-.1v.1Z"/>
  </g>
  <g>
    <path class="st0" d="M1359.062,60.457v-9h-3.256v-1.704h8.458v1.704h-3.242v9h-1.96Z"/>
    <path class="st0" d="M1365.319,60.457v-10.704h2.639l2.955,8.292,2.954-8.292h2.639v10.704h-1.96v-7.387l-2.698,7.372h-1.87l-2.698-7.372v7.387h-1.96Z"/>
  </g>
</svg>